<svg width="270" height="241" viewBox="0 0 270 241" fill="none" xmlns="http://www.w3.org/2000/svg">
<path d="M224.524 54.1681C239.827 54.1681 252.234 42.1261 252.234 27.2716C252.234 12.417 239.827 0.375 224.524 0.375C209.22 0.375 196.814 12.417 196.814 27.2716C196.814 42.1261 209.22 54.1681 224.524 54.1681Z" fill="#FCC24C"/>
<path d="M60.3968 136.927C91.0042 136.927 115.816 112.843 115.816 83.1336C115.816 53.4244 91.0042 29.3405 60.3968 29.3405C29.7895 29.3405 4.97733 53.4244 4.97733 83.1336C4.97733 112.843 29.7895 136.927 60.3968 136.927Z" fill="#80D25B"/>
<path d="M61.5323 226.607V119.021L30.5556 83.1336" stroke="#AB5F5F" stroke-width="3.32238" stroke-linecap="round" stroke-linejoin="round"/>
<path d="M60.3968 119.102L79.471 95.5474" stroke="#AB5F5F" stroke-width="3.32238" stroke-linecap="round"/>
<path fill-rule="evenodd" clip-rule="evenodd" d="M118.728 178.102C119.475 175.929 121.987 174.168 124.335 174.168H243.715C246.065 174.168 248.584 175.954 249.322 178.102L255.146 195.062C255.892 197.234 254.557 198.996 252.237 198.996H115.813C113.46 198.996 112.167 197.21 112.904 195.062L118.728 178.102Z" fill="#AB5F5F"/>
<path fill-rule="evenodd" clip-rule="evenodd" d="M0.714264 227.961H269.286V240.375H0.714264V227.961Z" fill="#80D25B"/>
<path d="M124.342 203.134V223.823" stroke="#BD7575" stroke-width="3.32238" stroke-linecap="square"/>
<path d="M137.131 145.203V170.03" stroke="#BD7575" stroke-width="3.32238" stroke-linecap="square"/>
<path d="M243.707 203.134V223.823" stroke="#BD7575" stroke-width="3.32238" stroke-linecap="square"/>
<path d="M230.918 145.203V170.03" stroke="#BD7575" stroke-width="3.32238" stroke-linecap="square"/>
<path d="M124.342 149.34H243.781" stroke="#AB5F5F" stroke-width="3.32238" stroke-linecap="square"/>
<path d="M124.342 161.754H243.781" stroke="#AB5F5F" stroke-width="3.32238" stroke-linecap="square"/>
<path d="M192.742 58.0331L180.366 70.0459" stroke="#FCC24C" stroke-width="3.32238" stroke-linecap="round"/>
<path d="M179.13 29.3405H162.71" stroke="#FCC24C" stroke-width="3.32238" stroke-linecap="round"/>
<path d="M222.392 70.7198V87.2715" stroke="#FCC24C" stroke-width="3.32238" stroke-linecap="round"/>
</svg>
