<svg width="212" height="201" viewBox="0 0 212 201" fill="none" xmlns="http://www.w3.org/2000/svg">
<path d="M106 200.5C164.37 200.5 211.689 155.728 211.689 100.5C211.689 45.2715 164.37 0.5 106 0.5C47.6296 0.5 0.310974 45.2715 0.310974 100.5C0.310974 155.728 47.6296 200.5 106 200.5Z" fill="#5B68C0"/>
<path d="M155.822 147.64C168.944 135.225 176.459 118.413 176.459 100.5C176.459 63.681 144.914 33.8333 106 33.8333V53.8333C133.24 53.8333 155.322 74.7267 155.322 100.5C155.322 113.054 150.072 124.797 140.876 133.498L155.822 147.64ZM56.1777 53.3595C43.0562 65.7748 35.5406 82.587 35.5406 100.5C35.5406 137.319 67.0864 167.167 106 167.167V147.167C78.7605 147.167 56.6785 126.273 56.6785 100.5C56.6785 87.9458 61.9277 76.2034 71.1244 67.5017L56.1777 53.3595Z" fill="#80D25B"/>
<path fill-rule="evenodd" clip-rule="evenodd" d="M70.7703 45.5L116.569 20.5V70.5L70.7703 45.5Z" fill="#80D25B"/>
<path fill-rule="evenodd" clip-rule="evenodd" d="M141.23 155.5L95.4311 180.5V130.5L141.23 155.5Z" fill="#80D25B"/>
</svg>
