<svg width="228" height="241" viewBox="0 0 228 241" fill="none" xmlns="http://www.w3.org/2000/svg">
<path fill-rule="evenodd" clip-rule="evenodd" d="M4.68484 33.791H63.8972V99.9979H34.291C17.94 99.9979 4.68484 87.9315 4.68484 73.069V33.791Z" stroke="#FFDD95" stroke-width="8.72124" stroke-linecap="round"/>
<path fill-rule="evenodd" clip-rule="evenodd" d="M223.315 33.791H164.103V99.9979H193.709C210.06 99.9979 223.315 87.9315 223.315 73.069V33.791Z" stroke="#FFDD95" stroke-width="8.72124" stroke-linecap="round"/>
<path fill-rule="evenodd" clip-rule="evenodd" d="M100.336 145.515H127.664V224.136H100.336V145.515Z" fill="#FFDD95"/>
<path fill-rule="evenodd" clip-rule="evenodd" d="M32.0136 0.6875H195.986V79.3135C195.986 120.446 159.29 153.791 114 153.791C68.7202 153.791 32.0136 120.475 32.0136 79.3135V0.6875Z" fill="#FFAF40"/>
<path fill-rule="evenodd" clip-rule="evenodd" d="M63.8972 0.6875H109.445V79.3082L86.6712 64.0889L63.8972 79.3082V0.6875Z" fill="#FB3A3A"/>
<path fill-rule="evenodd" clip-rule="evenodd" d="M68.452 219.998H159.548V240.688H68.452V219.998Z" fill="#FFAF40"/>
</svg>
